<mxfile host="app.diagrams.net" modified="2023-10-29T10:21:33.722Z" agent="Mozilla/5.0 (Macintosh; Intel Mac OS X 10_15_7) AppleWebKit/537.36 (KHTML, like Gecko) Chrome/118.0.0.0 Safari/537.36" version="22.0.6" etag="d5F54WXlfS44mLbIDdPS" type="github">
  <diagram name="Page-1" id="Mlj_jOk8GRtNcSz1oBo1">
    <mxGraphModel>
      <root>
        <mxCell id="0" />
        <mxCell id="1" parent="0" />
      </root>
    </mxGraphModel>
  </diagram>
</mxfile>
